<svg width="17" height="14" fill="none" xmlns="http://www.w3.org/2000/svg"><path d="M9.12 2.986c.336-.193.56-.542.56-.935 0-.607-.528-1.099-1.18-1.099-.652 0-1.18.492-1.18 1.1 0 .395.224.741.56.934l-1.69 3.15c-.27.5-.966.642-1.435.293l-2.63-1.96a1.05 1.05 0 0 0 .236-.659c0-.607-.528-1.1-1.18-1.1C.528 2.71 0 3.204 0 3.81c0 .608.528 1.1 1.18 1.1h.021l1.349 6.909c.162.835.944 1.445 1.86 1.445h8.18c.913 0 1.695-.607 1.86-1.445l1.349-6.91h.02C16.472 4.91 17 4.419 17 3.81c0-.607-.528-1.1-1.18-1.1-.653 0-1.181.493-1.181 1.1 0 .248.088.476.236.66l-2.63 1.96c-.469.348-1.165.205-1.434-.295L9.12 2.985Z" fill="#B99169"/></svg>