<svg xmlns="http://www.w3.org/2000/svg" width="139" height="123" fill="none"><rect width="92" height="92" x="24.5" y="29.5" fill="#F4F4F4" stroke="#676C6D" stroke-width="3" rx="8.5"/><path fill="url(#a)" stroke="#AB2525" stroke-width="2.5" d="M24.25 27.25h92.5v28.5h-92.5z"/><rect width="28" height="9" x="44" y="45" fill="#434748" rx="4.5" transform="rotate(-90 44 45)"/><rect width="28" height="9" x="89" y="45" fill="#434748" rx="4.5" transform="rotate(-90 89 45)"/><path fill="#B4B4B4" d="M54 65h14v12H54zM73 65h14v12H73zM92 65h14v12H92zM35 83h14v11H35zM54 83h14v11H54zM73 83h14v11H73zM92 83h14v11H92zM35 100h14v11H35zM54 100h14v11H54zM73 100h14v11H73z"/><path fill="#F9DD3B" stroke="#E3C484" d="m134.643 8.732-.405-.9-3.071.814a6.13 6.13 0 0 1-6.679-2.538l-1.756-2.648-.9.405.814 3.071a6.13 6.13 0 0 1-2.538 6.679l-2.648 1.756.405.9 3.071-.814a6.13 6.13 0 0 1 6.679 2.537l1.756 2.649.9-.405-.814-3.071a6.131 6.131 0 0 1 2.537-6.68l2.649-1.755ZM11.355 28.046l-.948-.274-1.073 2.255a4.712 4.712 0 0 1-4.808 2.655l-2.48-.294-.274.948 2.255 1.074a4.711 4.711 0 0 1 2.655 4.807l-.294 2.48.948.274 1.074-2.255a4.712 4.712 0 0 1 4.807-2.654l2.48.293.274-.948-2.255-1.073a4.711 4.711 0 0 1-2.654-4.808l.293-2.48Z"/><defs><linearGradient id="a" x1="25" x2="117" y1="26" y2="58" gradientUnits="userSpaceOnUse"><stop stop-color="#F97F7F"/><stop offset="1" stop-color="#D14D4D"/></linearGradient></defs></svg>