<svg width="95" height="106" fill="none" xmlns="http://www.w3.org/2000/svg"><rect x="1.5" y="12.5" width="92" height="92" rx="8.5" fill="#F4F4F4" stroke="#676C6D" stroke-width="3"/><path fill="url(#a)" stroke="#676C6D" stroke-width="2.5" d="M1.25 10.25h92.5v28.5H1.25z"/><rect x="21" y="28" width="28" height="9" rx="4.5" transform="rotate(-90 21 28)" fill="#434748"/><rect x="66" y="28" width="28" height="9" rx="4.5" transform="rotate(-90 66 28)" fill="#434748"/><path fill="#B4B4B4" d="M31 48h14v12H31zM50 48h14v12H50zM69 48h14v12H69zM12 66h14v11H12zM31 66h14v11H31zM50 66h14v11H50zM69 66h14v11H69zM12 83h14v11H12zM31 83h14v11H31zM50 83h14v11H50z"/><defs><linearGradient id="a" x1="2" y1="9" x2="94" y2="41" gradientUnits="userSpaceOnUse"><stop stop-color="#E6E6E6"/><stop offset="1" stop-color="#929292"/></linearGradient></defs></svg>