<svg width="52" height="52" fill="none" xmlns="http://www.w3.org/2000/svg"><path d="m43.754 27.75-10.393-18c-3.271-5.667-11.45-5.667-14.722 0l-10.393 18c-3.271 5.667.818 12.75 7.362 12.75h20.784c6.544 0 10.633-7.083 7.361-12.75Z" fill="url(#a)" stroke="#B47700" stroke-width="3"/><path opacity=".6" d="m30.763 11.25 10.392 18c2.117 3.667-.529 8.25-4.763 8.25H15.608c-4.234 0-6.88-4.583-4.763-8.25l10.392-18c2.117-3.667 7.41-3.667 9.526 0Z" stroke="#fff" stroke-width="3"/><rect x="28.793" y="26.892" width="5.532" height="12.033" rx="2.766" transform="rotate(-180 28.793 26.892)" fill="#5A3C00"/><circle cx="26.027" cy="31.037" transform="rotate(-180 26.027 31.037)" fill="#5A3C00" r="2.766"/><defs><linearGradient id="a" x1="15.522" y1="7.761" x2="36.219" y2="42.169" gradientUnits="userSpaceOnUse"><stop stop-color="#FEE3AD"/><stop offset="1" stop-color="#F0A91C"/></linearGradient></defs></svg>