<svg width="17" height="13" fill="none" xmlns="http://www.w3.org/2000/svg"><path d="M9.12 2.631c.336-.192.56-.541.56-.934 0-.607-.528-1.1-1.18-1.1-.652 0-1.18.493-1.18 1.1 0 .396.224.742.56.934l-1.69 3.15c-.27.5-.966.643-1.435.294l-2.63-1.96a1.05 1.05 0 0 0 .236-.66c0-.607-.528-1.099-1.18-1.099-.653 0-1.181.492-1.181 1.1 0 .607.528 1.1 1.18 1.1h.021l1.349 6.908c.162.836.944 1.446 1.86 1.446h8.18c.913 0 1.695-.608 1.86-1.446l1.349-6.909h.02c.653 0 1.181-.492 1.181-1.1 0-.607-.528-1.099-1.18-1.099-.653 0-1.181.492-1.181 1.1 0 .247.088.475.236.66l-2.63 1.959c-.469.349-1.165.206-1.434-.294L9.12 2.63Z" fill="#E6D64E"/></svg>