<svg width="114" height="114" viewBox="0 0 114 114" fill="none" xmlns="http://www.w3.org/2000/svg">
<circle cx="57" cy="57" r="57" fill="#DF5555"/>
<path fill-rule="evenodd" clip-rule="evenodd" d="M30.6148 78.3559C28.4617 80.5089 28.4617 83.9996 30.6148 86.1527C32.7678 88.3057 36.2585 88.3057 38.4115 86.1527L57.3838 67.1804L76.3561 86.1527C78.5092 88.3057 81.9999 88.3057 84.1529 86.1527C86.3059 83.9996 86.3059 80.5089 84.1529 78.3559L65.1806 59.3836L84.1527 40.4115C86.3057 38.2585 86.3057 34.7678 84.1527 32.6148C81.9996 30.4617 78.5089 30.4617 76.3559 32.6148L57.3838 51.5868L38.4118 32.6148C36.2588 30.4617 32.768 30.4617 30.615 32.6148C28.462 34.7678 28.462 38.2585 30.615 40.4115L49.5871 59.3836L30.6148 78.3559Z" fill="white"/>
</svg>
