<svg xmlns="http://www.w3.org/2000/svg" width="92" height="85" fill="none"><circle cx="41.634" cy="44.224" r="35.676" fill="url(#a)" stroke="#D9C300" stroke-width="4"/><circle cx="41.634" cy="44.224" r="27.158" fill="url(#b)" opacity=".3"/><circle cx="41.634" cy="44.224" r="31.676" stroke="#fff" stroke-width="4" opacity=".5"/><g filter="url(#c)"><path fill="#FFF5B7" d="M31.494 59.07V29.576h11.06c2.266 0 4.167.423 5.704 1.268 1.545.845 2.712 2.006 3.5 3.485.796 1.469 1.195 3.14 1.195 5.012 0 1.891-.399 3.571-1.196 5.04-.797 1.47-1.973 2.626-3.528 3.471-1.556.836-3.471 1.253-5.747 1.253h-7.33v-4.392h6.61c1.325 0 2.41-.23 3.255-.692.845-.46 1.47-1.094 1.872-1.9.413-.807.62-1.734.62-2.78 0-1.047-.207-1.969-.62-2.765-.403-.797-1.032-1.417-1.886-1.858-.845-.451-1.935-.677-3.27-.677h-4.896v25.03h-5.343Z"/></g><path fill="#F9DD3B" stroke="#fff" d="M21.63 74.86v-.987l-3.534-.582a6.972 6.972 0 0 1-5.746-5.746l-.582-3.534h-.987l-.582 3.534a6.972 6.972 0 0 1-5.746 5.746l-3.534.582v.987l3.534.582a6.972 6.972 0 0 1 5.746 5.746l.582 3.534h.986l.583-3.534a6.972 6.972 0 0 1 5.746-5.746l3.533-.582ZM81.978 12.886v-.987l-4.078-.672a8.122 8.122 0 0 1-6.693-6.693L70.535.456h-.987l-.671 4.078a8.121 8.121 0 0 1-6.694 6.693l-4.077.672v.987l4.077.671a8.121 8.121 0 0 1 6.694 6.694l.671 4.077h.987l.672-4.077a8.122 8.122 0 0 1 6.693-6.694l4.078-.671ZM91.813 24.52v-.986l-2.04-.336a3.81 3.81 0 0 1-3.14-3.14l-.336-2.04h-.986l-.336 2.04a3.81 3.81 0 0 1-3.14 3.14l-2.04.336v.986l2.04.336a3.81 3.81 0 0 1 3.14 3.141l.336 2.039h.986l.336-2.039a3.81 3.81 0 0 1 3.14-3.14l2.04-.337Z"/><defs><linearGradient id="a" x1="22.443" x2="61.55" y1="15.98" y2="75.003" gradientUnits="userSpaceOnUse"><stop stop-color="#FFDE00"/><stop offset="1" stop-color="#DAA92C"/></linearGradient><linearGradient id="b" x1="23.938" x2="34.03" y1="21.622" y2="44.586" gradientUnits="userSpaceOnUse"><stop stop-color="#fff"/><stop offset="1" stop-color="#fff" stop-opacity="0"/></linearGradient><filter id="c" width="21.459" height="30.495" x="31.494" y="29.575" color-interpolation-filters="sRGB" filterUnits="userSpaceOnUse"><feFlood flood-opacity="0" result="BackgroundImageFix"/><feBlend in="SourceGraphic" in2="BackgroundImageFix" result="shape"/><feColorMatrix in="SourceAlpha" result="hardAlpha" values="0 0 0 0 0 0 0 0 0 0 0 0 0 0 0 0 0 0 127 0"/><feOffset dy="1"/><feGaussianBlur stdDeviation=".5"/><feComposite in2="hardAlpha" k2="-1" k3="1" operator="arithmetic"/><feColorMatrix values="0 0 0 0 0 0 0 0 0 0 0 0 0 0 0 0 0 0 0.25 0"/><feBlend in2="shape" result="effect1_innerShadow_162_478"/></filter></defs></svg>