<svg width="76" height="76" fill="none" xmlns="http://www.w3.org/2000/svg"><circle cx="37.676" cy="37.676" r="35.676" fill="url(#a)" stroke="#9A9A9A" stroke-width="4"/><circle opacity=".3" cx="37.676" cy="37.676" r="27.158" fill="url(#b)"/><circle opacity=".5" cx="37.676" cy="37.676" r="31.676" stroke="#fff" stroke-width="4"/><g filter="url(#c)"><path d="M27.535 52.522V23.027h11.061c2.266 0 4.167.423 5.703 1.267 1.546.845 2.712 2.007 3.5 3.486.797 1.469 1.195 3.14 1.195 5.012 0 1.891-.398 3.571-1.195 5.04-.797 1.47-1.973 2.626-3.529 3.471-1.555.836-3.47 1.253-5.746 1.253h-7.33v-4.392h6.61c1.325 0 2.41-.23 3.255-.692.845-.46 1.469-1.094 1.872-1.9.413-.807.62-1.734.62-2.78 0-1.047-.207-1.969-.62-2.766-.403-.796-1.032-1.416-1.887-1.857-.845-.452-1.934-.677-3.269-.677h-4.897v25.03h-5.343Z" fill="#E3E3E3"/></g><defs><linearGradient id="a" x1="18.484" y1="9.432" x2="57.592" y2="68.455" gradientUnits="userSpaceOnUse"><stop stop-color="#C7C7C7"/><stop offset="1" stop-color="#8E8E8E"/></linearGradient><linearGradient id="b" x1="19.979" y1="15.073" x2="30.072" y2="38.038" gradientUnits="userSpaceOnUse"><stop stop-color="#fff"/><stop offset="1" stop-color="#fff" stop-opacity="0"/></linearGradient><filter id="c" x="27.535" y="23.027" width="21.459" height="30.495" filterUnits="userSpaceOnUse" color-interpolation-filters="sRGB"><feFlood flood-opacity="0" result="BackgroundImageFix"/><feBlend in="SourceGraphic" in2="BackgroundImageFix" result="shape"/><feColorMatrix in="SourceAlpha" values="0 0 0 0 0 0 0 0 0 0 0 0 0 0 0 0 0 0 127 0" result="hardAlpha"/><feOffset dy="1"/><feGaussianBlur stdDeviation=".5"/><feComposite in2="hardAlpha" operator="arithmetic" k2="-1" k3="1"/><feColorMatrix values="0 0 0 0 0 0 0 0 0 0 0 0 0 0 0 0 0 0 0.25 0"/><feBlend in2="shape" result="effect1_innerShadow_161_470"/></filter></defs></svg>