<svg width="17" height="13" fill="none" xmlns="http://www.w3.org/2000/svg"><path d="M9.12 2.309c.336-.193.56-.542.56-.935 0-.607-.528-1.1-1.18-1.1-.652 0-1.18.493-1.18 1.1 0 .396.224.742.56.935L6.19 5.458c-.27.5-.966.643-1.435.294l-2.63-1.96a1.05 1.05 0 0 0 .236-.659c0-.607-.528-1.1-1.18-1.1-.653 0-1.181.493-1.181 1.1 0 .607.528 1.1 1.18 1.1h.021L2.55 11.14c.162.836.944 1.446 1.86 1.446h8.18c.913 0 1.695-.607 1.86-1.446l1.349-6.909h.02c.653 0 1.181-.492 1.181-1.099s-.528-1.1-1.18-1.1c-.653 0-1.181.493-1.181 1.1 0 .247.088.475.236.66l-2.63 1.96c-.469.348-1.165.205-1.434-.295L9.12 2.308Z" fill="#BDC0C7"/></svg>